<svg width="231" height="42" viewBox="0 0 231 42" fill="none" xmlns="http://www.w3.org/2000/svg">
<g filter="url(#filter0_d)">
<rect x="4" y="4" width="223" height="34" rx="10" fill="#FBFBFB"/>
</g>
<path d="M184.551 11.0947V23.0127H186.818V26.124H184.551V30H180.754V26.124H172.514V22.8677C173.244 22.0503 174 21.1582 174.782 20.1914C175.564 19.2158 176.32 18.2139 177.049 17.1855C177.779 16.1572 178.456 15.1245 179.08 14.0874C179.712 13.0415 180.249 12.0439 180.688 11.0947H184.551ZM176.245 23.0127H180.754V16.4077C180.446 16.979 180.112 17.5591 179.752 18.1479C179.392 18.728 179.014 19.3037 178.618 19.875C178.223 20.4375 177.823 20.9868 177.418 21.5229C177.014 22.0503 176.623 22.5469 176.245 23.0127ZM191.143 30.3296C190.457 30.3296 189.886 30.1187 189.429 29.6968C188.972 29.2749 188.743 28.7563 188.743 28.1411C188.743 27.5083 188.976 26.9897 189.442 26.5854C189.917 26.1812 190.505 25.979 191.208 25.979C191.92 25.979 192.5 26.1855 192.949 26.5986C193.406 27.0029 193.634 27.5171 193.634 28.1411C193.634 28.7827 193.401 29.3101 192.936 29.7231C192.479 30.1274 191.881 30.3296 191.143 30.3296ZM202.52 30.3296C198.02 30.3296 195.77 27.1699 195.77 20.8506C195.77 17.5723 196.376 15.0762 197.589 13.3623C198.811 11.6396 200.578 10.7783 202.889 10.7783C207.284 10.7783 209.481 13.9907 209.481 20.4155C209.481 23.6147 208.879 26.0669 207.675 27.772C206.479 29.4771 204.761 30.3296 202.52 30.3296ZM202.705 13.9556C200.903 13.9556 200.002 16.2188 200.002 20.7451C200.002 25.0078 200.885 27.1392 202.652 27.1392C204.375 27.1392 205.236 24.9419 205.236 20.5474C205.236 16.1528 204.392 13.9556 202.705 13.9556Z" fill="#C4C4C4"/>
<path d="M184.551 11.0947H184.651V10.9947H184.551V11.0947ZM184.551 23.0127H184.451V23.1127H184.551V23.0127ZM186.818 23.0127H186.918V22.9127H186.818V23.0127ZM186.818 26.124V26.224H186.918V26.124H186.818ZM184.551 26.124V26.024H184.451V26.124H184.551ZM184.551 30V30.1H184.651V30H184.551ZM180.754 30H180.654V30.1H180.754V30ZM180.754 26.124H180.854V26.024H180.754V26.124ZM172.514 26.124H172.414V26.224H172.514V26.124ZM172.514 22.8677L172.44 22.8011L172.414 22.8295V22.8677H172.514ZM174.782 20.1914L174.859 20.2543L174.86 20.254L174.782 20.1914ZM179.08 14.0874L178.994 14.0356L178.994 14.0358L179.08 14.0874ZM180.688 11.0947V10.9947H180.624L180.597 11.0527L180.688 11.0947ZM176.245 23.0127L176.167 22.9497L176.035 23.1127H176.245V23.0127ZM180.754 23.0127V23.1127H180.854V23.0127H180.754ZM180.754 16.4077H180.854L180.666 16.3603L180.754 16.4077ZM179.752 18.1479L179.837 18.2007L179.837 18.2001L179.752 18.1479ZM178.618 19.875L178.7 19.9325L178.7 19.9319L178.618 19.875ZM177.418 21.5229L177.498 21.5838L177.498 21.5832L177.418 21.5229ZM184.451 11.0947V23.0127H184.651V11.0947H184.451ZM184.551 23.1127H186.818V22.9127H184.551V23.1127ZM186.718 23.0127V26.124H186.918V23.0127H186.718ZM186.818 26.024H184.551V26.224H186.818V26.024ZM184.451 26.124V30H184.651V26.124H184.451ZM184.551 29.9H180.754V30.1H184.551V29.9ZM180.854 30V26.124H180.654V30H180.854ZM180.754 26.024H172.514V26.224H180.754V26.024ZM172.614 26.124V22.8677H172.414V26.124H172.614ZM172.589 22.9343C173.319 22.1155 174.076 21.2222 174.859 20.2543L174.704 20.1285C173.923 21.0942 173.168 21.9851 172.44 22.8011L172.589 22.9343ZM174.86 20.254C175.643 19.2768 176.4 18.2733 177.131 17.2434L176.968 17.1277C176.239 18.1544 175.485 19.1548 174.704 20.1289L174.86 20.254ZM177.131 17.2434C177.862 16.2131 178.54 15.1783 179.165 14.139L178.994 14.0358C178.371 15.0707 177.696 16.1013 176.968 17.1277L177.131 17.2434ZM179.165 14.1392C179.8 13.0906 180.338 12.0898 180.779 11.1367L180.597 11.0527C180.16 11.9981 179.625 12.9924 178.994 14.0356L179.165 14.1392ZM180.688 11.1947H184.551V10.9947H180.688V11.1947ZM176.245 23.1127H180.754V22.9127H176.245V23.1127ZM180.854 23.0127V16.4077H180.654V23.0127H180.854ZM180.666 16.3603C180.359 16.9299 180.026 17.5084 179.667 18.0958L179.837 18.2001C180.199 17.6098 180.533 17.0281 180.842 16.4551L180.666 16.3603ZM179.667 18.0952C179.308 18.6738 178.931 19.2481 178.536 19.8181L178.7 19.9319C179.097 19.3593 179.476 18.7822 179.837 18.2007L179.667 18.0952ZM178.536 19.8175C178.141 20.3791 177.742 20.9275 177.339 21.4627L177.498 21.5832C177.903 21.0461 178.304 20.4959 178.7 19.9325L178.536 19.8175ZM177.339 21.4621C176.935 21.9888 176.545 22.4847 176.167 22.9497L176.323 23.0757C176.701 22.6091 177.093 22.1118 177.498 21.5838L177.339 21.4621ZM189.442 26.5854L189.377 26.5093L189.376 26.5099L189.442 26.5854ZM192.949 26.5986L192.881 26.6722L192.882 26.6735L192.949 26.5986ZM192.936 29.7231L193.002 29.798L193.002 29.798L192.936 29.7231ZM191.143 30.2296C190.479 30.2296 189.933 30.0263 189.497 29.6233L189.361 29.7703C189.838 30.211 190.435 30.4296 191.143 30.4296V30.2296ZM189.497 29.6233C189.06 29.2201 188.843 28.7281 188.843 28.1411H188.643C188.643 28.7846 188.884 29.3297 189.361 29.7703L189.497 29.6233ZM188.843 28.1411C188.843 27.5364 189.064 27.0457 189.507 26.661L189.376 26.5099C188.888 26.9338 188.643 27.4802 188.643 28.1411H188.843ZM189.507 26.6616C189.961 26.2747 190.526 26.079 191.208 26.079V25.879C190.485 25.879 189.872 26.0876 189.377 26.5093L189.507 26.6616ZM191.208 26.079C191.9 26.079 192.454 26.2789 192.881 26.6722L193.016 26.5251C192.547 26.0922 191.941 25.879 191.208 25.879V26.079ZM192.882 26.6735C193.317 27.0584 193.534 27.545 193.534 28.1411H193.734C193.734 27.4892 193.494 26.9475 193.015 26.5237L192.882 26.6735ZM193.534 28.1411C193.534 28.7551 193.313 29.2549 192.869 29.6483L193.002 29.798C193.49 29.3652 193.734 28.8103 193.734 28.1411H193.534ZM192.869 29.6482C192.434 30.0331 191.862 30.2296 191.143 30.2296V30.4296C191.9 30.4296 192.523 30.2218 193.002 29.798L192.869 29.6482ZM197.589 13.3623L197.508 13.3045L197.508 13.3045L197.589 13.3623ZM207.675 27.772L207.593 27.7143L207.593 27.7146L207.675 27.772ZM202.52 30.2296C200.296 30.2296 198.642 29.4508 197.539 27.9018C196.431 26.3466 195.87 24.0014 195.87 20.8506H195.67C195.67 24.0191 196.234 26.4134 197.376 28.0178C198.523 29.6285 200.244 30.4296 202.52 30.4296V30.2296ZM195.87 20.8506C195.87 17.5822 196.475 15.11 197.671 13.4201L197.508 13.3045C196.278 15.0424 195.67 17.5624 195.67 20.8506H195.87ZM197.671 13.4202C198.872 11.7267 200.606 10.8783 202.889 10.8783V10.6783C200.549 10.6783 198.75 11.5526 197.508 13.3045L197.671 13.4202ZM202.889 10.8783C205.058 10.8783 206.673 11.669 207.75 13.2441C208.832 14.826 209.381 17.2114 209.381 20.4155H209.581C209.581 17.1948 209.031 14.7617 207.916 13.1312C206.796 11.4939 205.114 10.6783 202.889 10.6783V10.8783ZM209.381 20.4155C209.381 23.6044 208.78 26.0329 207.593 27.7143L207.756 27.8297C208.977 26.1009 209.581 23.6251 209.581 20.4155H209.381ZM207.593 27.7146C206.418 29.3906 204.732 30.2296 202.52 30.2296V30.4296C204.791 30.4296 206.541 29.5635 207.757 27.8294L207.593 27.7146ZM202.705 13.8556C202.231 13.8556 201.814 14.0049 201.458 14.3032C201.104 14.6001 200.814 15.0404 200.585 15.616C200.127 16.7655 199.902 18.4782 199.902 20.7451H200.102C200.102 18.4856 200.327 16.8036 200.771 15.6899C200.992 15.134 201.265 14.7255 201.586 14.4566C201.906 14.1891 202.277 14.0556 202.705 14.0556V13.8556ZM199.902 20.7451C199.902 22.8804 200.123 24.4948 200.572 25.5789C200.797 26.122 201.082 26.5374 201.43 26.8175C201.78 27.0988 202.188 27.2392 202.652 27.2392V27.0392C202.232 27.0392 201.868 26.9131 201.555 26.6616C201.241 26.4088 200.973 26.025 200.757 25.5024C200.323 24.4551 200.102 22.8726 200.102 20.7451H199.902ZM202.652 27.2392C203.106 27.2392 203.506 27.0937 203.847 26.8034C204.187 26.5146 204.464 26.0867 204.683 25.5277C205.121 24.4113 205.336 22.7482 205.336 20.5474H205.136C205.136 22.741 204.92 24.3738 204.497 25.4547C204.285 25.9944 204.024 26.3904 203.718 26.651C203.413 26.91 203.059 27.0392 202.652 27.0392V27.2392ZM205.336 20.5474C205.336 18.3466 205.125 16.6838 204.696 15.5677C204.482 15.0089 204.21 14.5809 203.878 14.292C203.543 14.0015 203.15 13.8556 202.705 13.8556V14.0556C203.103 14.0556 203.448 14.1843 203.746 14.4431C204.047 14.7035 204.302 15.0995 204.51 15.6394C204.925 16.7205 205.136 18.3536 205.136 20.5474H205.336Z" fill="black"/>
<g filter="url(#filter1_i)">
<path d="M30.5508 29.3774C29.2731 29.9959 27.6048 30.3052 25.5459 30.3052C22.8604 30.3052 20.7485 29.5158 19.2104 27.937C17.6724 26.3582 16.9033 24.2546 16.9033 21.626C16.9033 18.8265 17.766 16.556 19.4912 14.8145C21.2246 13.0729 23.4707 12.2021 26.2295 12.2021C27.9385 12.2021 29.3789 12.4178 30.5508 12.8491V16.6455C29.3789 15.9456 28.0443 15.5957 26.5469 15.5957C24.903 15.5957 23.5765 16.1125 22.5674 17.146C21.5583 18.1795 21.0537 19.5793 21.0537 21.3452C21.0537 23.0379 21.5298 24.3888 22.4819 25.3979C23.4341 26.3989 24.7158 26.8994 26.3271 26.8994C27.8652 26.8994 29.2731 26.5251 30.5508 25.7764V29.3774ZM39.1812 30.3052C37.0978 30.3052 35.458 29.7233 34.2617 28.5596C33.0736 27.3877 32.4795 25.8008 32.4795 23.7988C32.4795 21.7318 33.098 20.1164 34.335 18.9526C35.5719 17.7808 37.2443 17.1948 39.3521 17.1948C41.4272 17.1948 43.0549 17.7808 44.2349 18.9526C45.4149 20.1164 46.0049 21.6585 46.0049 23.5791C46.0049 25.6543 45.3945 27.2941 44.1738 28.4985C42.9613 29.703 41.297 30.3052 39.1812 30.3052ZM39.2788 20.1489C38.3674 20.1489 37.6593 20.4622 37.1548 21.0889C36.6502 21.7155 36.3979 22.6025 36.3979 23.75C36.3979 26.1507 37.3664 27.3511 39.3032 27.3511C41.1506 27.3511 42.0742 26.1182 42.0742 23.6523C42.0742 21.3167 41.1424 20.1489 39.2788 20.1489ZM68.356 30H64.5107V22.8711C64.5107 21.0563 63.8434 20.1489 62.5088 20.1489C61.874 20.1489 61.3573 20.4215 60.9585 20.9668C60.5597 21.512 60.3604 22.1916 60.3604 23.0054V30H56.5029V22.7979C56.5029 21.0319 55.8478 20.1489 54.5376 20.1489C53.8784 20.1489 53.3494 20.4093 52.9507 20.9302C52.5601 21.451 52.3647 22.159 52.3647 23.0542V30H48.5073V17.5H52.3647V19.4531H52.4136C52.8123 18.7858 53.3698 18.2446 54.0859 17.8296C54.8102 17.4064 55.5996 17.1948 56.4541 17.1948C58.2201 17.1948 59.4285 17.972 60.0796 19.5264C61.0317 17.972 62.4315 17.1948 64.2788 17.1948C66.9969 17.1948 68.356 18.8713 68.356 22.2241V30ZM91.2563 30H87.4111V22.8711C87.4111 21.0563 86.7438 20.1489 85.4092 20.1489C84.7744 20.1489 84.2576 20.4215 83.8589 20.9668C83.4601 21.512 83.2607 22.1916 83.2607 23.0054V30H79.4033V22.7979C79.4033 21.0319 78.7482 20.1489 77.438 20.1489C76.7788 20.1489 76.2498 20.4093 75.8511 20.9302C75.4604 21.451 75.2651 22.159 75.2651 23.0542V30H71.4077V17.5H75.2651V19.4531H75.314C75.7127 18.7858 76.2702 18.2446 76.9863 17.8296C77.7106 17.4064 78.5 17.1948 79.3545 17.1948C81.1204 17.1948 82.3289 17.972 82.98 19.5264C83.9321 17.972 85.3319 17.1948 87.1792 17.1948C89.8973 17.1948 91.2563 18.8713 91.2563 22.2241V30ZM105.539 24.8486H97.3843C97.5145 26.6634 98.6579 27.5708 100.814 27.5708C102.19 27.5708 103.398 27.2453 104.44 26.5942V29.3774C103.284 29.9959 101.783 30.3052 99.9355 30.3052C97.9173 30.3052 96.3507 29.7477 95.2358 28.6328C94.1209 27.5098 93.5635 25.9473 93.5635 23.9453C93.5635 21.8701 94.1657 20.2262 95.3701 19.0137C96.5745 17.8011 98.0557 17.1948 99.8135 17.1948C101.636 17.1948 103.044 17.736 104.037 18.8184C105.038 19.9007 105.539 21.3696 105.539 23.2251V24.8486ZM101.962 22.4805C101.962 20.6901 101.238 19.7949 99.7891 19.7949C99.1706 19.7949 98.6335 20.0513 98.1777 20.564C97.7301 21.0767 97.4575 21.7155 97.3599 22.4805H101.962ZM115.988 20.979C115.524 20.7267 114.983 20.6006 114.364 20.6006C113.526 20.6006 112.871 20.9098 112.399 21.5283C111.927 22.1387 111.691 22.9728 111.691 24.0308V30H107.833V17.5H111.691V19.8193H111.74C112.35 18.1266 113.449 17.2803 115.036 17.2803C115.443 17.2803 115.76 17.3291 115.988 17.4268V20.979ZM127.169 29.5483C126.299 30.0529 125.041 30.3052 123.397 30.3052C121.477 30.3052 119.923 29.7233 118.734 28.5596C117.546 27.3958 116.952 25.8944 116.952 24.0552C116.952 21.9312 117.587 20.2588 118.856 19.0381C120.134 17.8092 121.839 17.1948 123.971 17.1948C125.444 17.1948 126.51 17.3901 127.169 17.7808V21.0522C126.364 20.45 125.465 20.1489 124.472 20.1489C123.365 20.1489 122.486 20.4744 121.835 21.1255C121.192 21.7684 120.871 22.6595 120.871 23.7988C120.871 24.9056 121.18 25.7764 121.798 26.4111C122.417 27.0378 123.267 27.3511 124.35 27.3511C125.31 27.3511 126.25 27.05 127.169 26.4478V29.5483ZM131.662 15.5225C131.011 15.5225 130.478 15.3312 130.062 14.9487C129.647 14.5581 129.44 14.082 129.44 13.5205C129.44 12.9427 129.647 12.4707 130.062 12.1045C130.478 11.7383 131.011 11.5552 131.662 11.5552C132.321 11.5552 132.854 11.7383 133.261 12.1045C133.676 12.4707 133.883 12.9427 133.883 13.5205C133.883 14.1064 133.676 14.5866 133.261 14.9609C132.854 15.3353 132.321 15.5225 131.662 15.5225ZM133.566 30H129.708V17.5H133.566V30ZM147.213 30H143.563V28.2056H143.515C142.676 29.6053 141.435 30.3052 139.792 30.3052C138.579 30.3052 137.623 29.9634 136.923 29.2798C136.231 28.5881 135.885 27.6685 135.885 26.521C135.885 24.0959 137.322 22.6961 140.194 22.3218L143.588 21.8701C143.588 20.5029 142.847 19.8193 141.366 19.8193C139.877 19.8193 138.461 20.2629 137.118 21.1499V18.2446C137.655 17.9679 138.388 17.7238 139.315 17.5122C140.251 17.3006 141.102 17.1948 141.867 17.1948C145.431 17.1948 147.213 18.973 147.213 22.5293V30ZM143.588 24.9219V24.0796L141.317 24.3726C140.064 24.5353 139.438 25.1009 139.438 26.0693C139.438 26.5088 139.588 26.8709 139.889 27.1558C140.198 27.4325 140.613 27.5708 141.134 27.5708C141.859 27.5708 142.449 27.3226 142.904 26.8262C143.36 26.3216 143.588 25.6868 143.588 24.9219ZM154.123 30H150.265V11.4941H154.123V30ZM168.6 24.8486H160.446C160.576 26.6634 161.719 27.5708 163.876 27.5708C165.251 27.5708 166.46 27.2453 167.501 26.5942V29.3774C166.346 29.9959 164.844 30.3052 162.997 30.3052C160.979 30.3052 159.412 29.7477 158.297 28.6328C157.182 27.5098 156.625 25.9473 156.625 23.9453C156.625 21.8701 157.227 20.2262 158.432 19.0137C159.636 17.8011 161.117 17.1948 162.875 17.1948C164.698 17.1948 166.106 17.736 167.099 18.8184C168.1 19.9007 168.6 21.3696 168.6 23.2251V24.8486ZM165.023 22.4805C165.023 20.6901 164.299 19.7949 162.851 19.7949C162.232 19.7949 161.695 20.0513 161.239 20.564C160.792 21.0767 160.519 21.7155 160.421 22.4805H165.023Z" fill="#F9B126"/>
</g>
<defs>
<filter id="filter0_d" x="0" y="0" width="231" height="42" filterUnits="userSpaceOnUse" color-interpolation-filters="sRGB">
<feFlood flood-opacity="0" result="BackgroundImageFix"/>
<feColorMatrix in="SourceAlpha" type="matrix" values="0 0 0 0 0 0 0 0 0 0 0 0 0 0 0 0 0 0 127 0"/>
<feOffset/>
<feGaussianBlur stdDeviation="2"/>
<feColorMatrix type="matrix" values="0 0 0 0 0 0 0 0 0 0 0 0 0 0 0 0 0 0 0.25 0"/>
<feBlend mode="normal" in2="BackgroundImageFix" result="effect1_dropShadow"/>
<feBlend mode="normal" in="SourceGraphic" in2="effect1_dropShadow" result="shape"/>
</filter>
<filter id="filter1_i" x="16.9033" y="11.4941" width="151.697" height="18.811" filterUnits="userSpaceOnUse" color-interpolation-filters="sRGB">
<feFlood flood-opacity="0" result="BackgroundImageFix"/>
<feBlend mode="normal" in="SourceGraphic" in2="BackgroundImageFix" result="shape"/>
<feColorMatrix in="SourceAlpha" type="matrix" values="0 0 0 0 0 0 0 0 0 0 0 0 0 0 0 0 0 0 127 0" result="hardAlpha"/>
<feOffset/>
<feGaussianBlur stdDeviation="1.5"/>
<feComposite in2="hardAlpha" operator="arithmetic" k2="-1" k3="1"/>
<feColorMatrix type="matrix" values="0 0 0 0 0 0 0 0 0 0 0 0 0 0 0 0 0 0 0.25 0"/>
<feBlend mode="normal" in2="shape" result="effect1_innerShadow"/>
</filter>
</defs>
</svg>
